#!OML:ASF E:/inclinewalkrobotboard/Project1/Captureday1/Session1/subject1.ASF
:FULLY-SPECIFIED
:DEGREES
38
root 0 0 0 44.95604939457468 -47.021270065502776 -18.47889332368411
lowerback -6.5030474798658915 3.595389061081175 -0.48225642145582337
upperback -13.423768990472627 4.303237196495216 -0.07031734078049912
thorax -11.016325572934969 2.108332686334439 0.6884838420513621
lowerneck -11.43577048045486 6.730201345897734 4.420308381759319
upperneck 18.22381976497684 7.192902593370253 7.26125202378714
head 7.653027340074492 4.206744501000132 2.1551916792035843
rclavicle 9.701015021796925E-16 -1.856757855362561E-15
rhumerus 7.4656691610634045 -22.528310921535628 -48.2186314697649
rradius 28.023624060507128
rwrist 21.016640049611446
rhand 0.7768937382555858 7.453100602378948
rfingers 7.125020000000029
rthumb 26.400909180110794 -19.60871107891379
lclavicle 1.4318425612646414E-15 -9.336086141808526E-16
lhumerus -10.552638032135956 3.9191635912364657 51.33253265802985
lradius 35.59121580446174
lwrist -7.841082276339813
lhand -1.7942256284311817 23.330238978413224
lfingers 7.125019999999975
lthumb 23.484011374977534 50.50937237067522
rfemur 59.47547873698184 -82.5135692247037 -56.677689035554394
rtibia 40.20795624896311
rfoot -18.438877226278404 -18.044784378421028
rtoes 21.669967045322146
lfemur -45.026784287209786 8.317788099485572 -27.19909089968231
ltibia 44.13870652714884
lfoot -22.814524139427718 15.04450003907478
ltoes 10.973286597919973
39
root 0 0 0 44.947672200120174 -47.01094782344225 -18.47534882854345
lowerback -6.500720746724481 3.594430189973591 -0.4825669117061113
upperback -13.422177819133307 4.301994745481073 -0.06960449730570772
thorax -11.01576915412754 2.1077925937777513 0.6893420648854227
lowerneck -11.435756568149658 6.728335627835156 4.418809875859904
upperneck 18.223873917960567 7.190778433146317 7.260285713456691
head 7.653014728775668 4.205557878995391 2.154891228825381
rclavicle 9.727606320290084E-16 -1.8599183759157574E-15
rhumerus 7.426122291005319 -22.527651714140916 -48.211941426839815
rradius 28.032351890125906
rwrist 20.99086562617758
rhand 0.7675865038712324 7.46411901003594
rfingers 7.1250200000000286
rthumb 26.392293489165922 -19.599570364060252
lclavicle 1.4558369552645494E-15 -9.296866998484128E-16
lhumerus -10.560183915162282 3.8735822055310374 51.41292957768165
lradius 35.63542622547163
lwrist -7.774774469483736
lhand -1.7722871875212114 23.316442001295883
lfingers 7.125019999999975
lthumb 23.501542616941308 50.490110288336744
rfemur 59.32538215099605 -82.34974248973009 -56.51837035622244
rtibia 40.20917326468058
rfoot -18.43348039442339 -18.025078714021646
rtoes 21.656582170654396
lfemur -44.970652028399 8.299190392688672 -27.184097980078914
ltibia 44.12144791242557
lfoot -22.80546841574362 15.017873994876336
ltoes 10.95459167152123
40
root 0 0 0 44.94123355073338 -47.00889747240112 -18.473188469873556
lowerback -6.497196624521323 3.5940078014706516 -0.48297750017125096
upperback -13.421329726024815 4.3012032840580225 -0.0697494259744782
thorax -11.016642243862847 2.107465296368523 0.6894351562859167
lowerneck -11.436105191590578 6.728613149855945 4.418546329197254
upperneck 18.220970173702188 7.191245918726846 7.260513641981598
head 7.651937959797078 4.205761165595619 2.155005883541809
rclavicle 9.732852903887534E-16 -1.8615925375500314E-15
rhumerus 7.398483522204398 -22.52508884766064 -48.21704637598849
rradius 28.03708724868875
rwrist 20.97361617741709
rhand 0.7578210028769377 7.47399733794515
rfingers 7.1250200000000286
rthumb 26.38315647414626 -19.59141440638273
lclavicle 1.4745126324760414E-15 -9.256893282207964E-16
lhumerus -10.569683435338899 3.836190378582468 51.48149849477271
lradius 35.66957626623384
lwrist -7.7197110009994265
lhand -1.757473977329731 23.305675701033856
lfingers 7.125019999999975
lthumb 23.512700837076473 50.475362246077424
rfemur 59.17179482166094 -82.1821754079053 -56.355623438446
rtibia 40.2105834475517
rfoot -18.428377499887993 -18.005071550185466
rtoes 21.64389036421085
lfemur -44.916843609700265 8.281232444845747 -27.171095438825237
ltibia 44.105569896825884
lfoot -22.794505259805934 14.992241973957515
ltoes 10.935400953413275
41
root 0 0 0 44.93984694151254 -47.01334182304167 -18.473229776369525
lowerback -6.494684435998309 3.594006443238118 -0.4833721930048143
upperback -13.422001441141777 4.300899484274019 -0.07021064903327012
thorax -11.018608778685909 2.107367784591697 0.6892752753576319
lowerneck -11.436074195445062 6.7303750612392985 4.4191627009779095
upperneck 18.216789192234256 7.193499579783264 7.26182131368903
head 7.650322891463978 4.206920383045985 2.1554634544879345
rclavicle 9.73278750330587E-16 -1.8626051401676525E-15
rhumerus 7.3818200523247555 -22.522878126390662 -48.22253315979978
rradius 28.039615532215343
rwrist 20.963233511112456
rhand 0.7514393920480735 7.480321544786083
rfingers 7.1250200000000286
rthumb 26.377190405428685 -19.586256444308603
lclavicle 1.4891521258094574E-15 -9.224471391095206E-16
lhumerus -10.576395193087501 3.807220140455967 51.53394830931147
lradius 35.69623206017827
lwrist -7.677253948516841
lhand -1.7454032091610419 23.29739469277219
lfingers 7.125019999999975
lthumb 23.521915965474847 50.46392414374586
rfemur 59.05657796793941 -82.05674397892378 -56.23407020733214
rtibia 40.21163178923503
rfoot -18.424692093405923 -17.990058899476672
rtoes 21.63450522108678
lfemur -44.87587863883546 8.267633103774168 -27.160822760417286
ltibia 44.09336625815864
lfoot -22.786855594534018 14.972786574432208
ltoes 10.921233172908707
42
root 0 0 0 44.97522807378274 -47.042408955041324 -18.487095916810024
lowerback -6.5059837095762 3.5956406428495513 -0.48320217677026417
upperback -13.433073796412122 4.303253625539777 -0.07033524745635633
thorax -11.024405505649527 2.108575719217865 0.6899255750523425
lowerneck -11.431368868417263 6.73686538847139 4.422753168022431
upperneck 18.21311877751647 7.20140535584528 7.267753283071906
head 7.648247679597317 4.211129593696742 2.157257063791519
rclavicle 9.679942924350405E-16 -1.861112629646584E-15
rhumerus 7.455109337910189 -22.520111523718263 -48.223890971599545
rradius 28.024244958606825
rwrist 21.002497471646947
rhand 0.779990019487327 7.452531945302198
rfingers 7.125020000000029
rthumb 26.404261689913035 -19.60971714489046
lclavicle 1.4868782617448362E-15 -9.25228827377736E-16
lhumerus -10.54267541505329 3.8152548547082716 51.489217339547395
lradius 35.70201955431004
lwrist -7.6930115313395095
lhand -1.7198574698003348 23.298596620105105
lfingers 7.125019999999976
lthumb 23.54810206397854 50.46124961146242
rfemur 59.150020404597385 -82.16708595208495 -56.34430586701859
rtibia 40.2121613597476
rfoot -18.434203117578576 -18.00351407025916
rtoes 21.652466274432665
lfemur -44.9129778112049 8.282579724915049 -27.16074311455187
ltibia 44.10212954160522
lfoot -22.812656104221993 14.993021700357662
ltoes 10.945562228057042
43
root 0 0 0 44.96660044153319 -47.03938815851052 -18.484846599154526
lowerback -6.501408442581919 3.5959060082791576 -0.4827762015333359
upperback -13.429816203192786 4.303361332485345 -0.07101313003472232
thorax -11.02339681772241 2.1085113364804307 0.6887879024837524
lowerneck -11.43363289890403 6.736342158754294 4.422663255776746
upperneck 18.212134736605375 7.200844746912514 7.266494353214412
head 7.648129444972225 4.210811846602495 2.156928670272853
rclavicle 9.67582085382933E-16 -1.860754608476104E-15
rhumerus 7.448592020427425 -22.518782224680233 -48.23340509814233
rradius 28.025283841834312
rwrist 21.000399136335265
rhand 0.7733629416286654 7.457791551457935
rfingers 7.1250200000000286
rthumb 26.398253659190054 -19.60536346449013
lclavicle 1.4968432549592663E-15 -9.239648869734916E-16
lhumerus -10.548491089865447 3.798528716865519 51.52356168284065
lradius 35.71673398948017
lwrist -7.668536626592459
lhand -1.7149019760322464 23.29348342578701
lfingers 7.125019999999976
lthumb 23.55179218582896 50.45472687994963
rfemur 59.05676289001198 -82.05910120524597 -56.23866485149571
rtibia 40.21217747029828
rfoot -18.425763799629692 -17.990133940515026
rtoes 21.63766362291054
lfemur -44.871703684791555 8.267728169737936 -27.153059169378945
ltibia 44.09012388589402
lfoot -22.7984160030132 14.971701847895623
ltoes 10.926908181713383
